<svg xmlns="http://www.w3.org/2000/svg" width="24" height="24" viewBox="0 0 24 24">
  <g id="Group_2" data-name="Group 2" transform="translate(-752 -393)">
    <rect id="Rectangle_1" data-name="Rectangle 1" width="24" height="24" transform="translate(752 393)" fill="none"/>
    <g id="Group_1" data-name="Group 1" transform="translate(0 -1)">
      <path id="Path_1" data-name="Path 1" d="M0,.518v18.1" transform="translate(759.5 396.5)" fill="none" stroke="#e52c2c" stroke-linecap="round" stroke-width="1"/>
      <g id="Polygon_1" data-name="Polygon 1" transform="translate(771 397) rotate(90)" fill="#e52c2c">
        <path d="M 11.19099044799805 11.50000190734863 L 11.19098091125488 11.50000190734863 L 0.809020459651947 11.50000190734863 L 5.999840259552002 1.118361830711365 L 5.99992561340332 1.118361830711365 L 11.19099044799805 11.50000190734863 Z" stroke="none"/>
        <path d="M 6.000000476837158 2.236080169677734 L 1.618026733398438 11.00000190734863 L 10.3819694519043 11.00000190734863 L 6.000000476837158 2.236080169677734 M 6.000000476837158 0.6180343627929688 C 6.177540302276611 0.6180343627929688 6.355080604553223 0.7101669311523438 6.447210311889648 0.8944320678710938 L 11.6382007598877 11.27639198303223 C 11.80442047119141 11.60884189605713 11.56267070770264 12.00000190734863 11.19098091125488 12.00000190734863 L 0.8090200424194336 12.00000190734863 C 0.4373302459716797 12.00000190734863 0.1955804824829102 11.60884189605713 0.3618001937866211 11.27639198303223 L 5.552790641784668 0.8944320678710938 C 5.644920349121094 0.7101669311523438 5.822460651397705 0.6180343627929688 6.000000476837158 0.6180343627929688 Z" stroke="none" fill="#e52c2c"/>
      </g>
    </g>
  </g>
</svg>
