<svg xmlns="http://www.w3.org/2000/svg" width="24" height="24" viewBox="0 0 24 24">
  <g id="Group_2" data-name="Group 2" transform="translate(-752 -393)">
    <rect id="Rectangle_1" data-name="Rectangle 1" width="24" height="24" transform="translate(752 393)" fill="none"/>
    <g id="Group_1" data-name="Group 1" transform="translate(0 -3)">
      <path id="Path_1" data-name="Path 1" d="M0,.518v21.65" transform="translate(759.5 396.5)" fill="none" stroke="#e52c2c" stroke-linecap="round" stroke-width="2"/>
      <g id="Polygon_1" data-name="Polygon 1" transform="translate(773 397) rotate(90)" fill="#e52c2c">
        <path d="M 14.16492080688477 13.50000190734863 L 0.8350809812545776 13.50000190734863 L 7.500000953674316 1.058821678161621 L 14.16492080688477 13.50000190734863 Z" stroke="none"/>
        <path d="M 7.499998092651367 2.11765193939209 L 1.670169830322266 13.00000190734863 L 13.32982635498047 13.00000190734863 L 7.499998092651367 2.11765193939209 M 7.500000953674316 0.5588245391845703 C 7.673248291015625 0.5588245391845703 7.846496105194092 0.6467866897583008 7.940741062164307 0.8227119445800781 L 14.60565090179443 13.26389122009277 C 14.78409099578857 13.59697151184082 14.54278087615967 14.00000190734863 14.1649112701416 14.00000190734863 L 0.8350811004638672 14.00000190734863 C 0.4572210311889648 14.00000190734863 0.2159109115600586 13.59697151184082 0.3943405151367188 13.26389122009277 L 7.059260845184326 0.8227119445800781 C 7.153505802154541 0.6467866897583008 7.326753616333008 0.5588245391845703 7.500000953674316 0.5588245391845703 Z" stroke="none" fill="#e52c2c"/>
      </g>
    </g>
  </g>
</svg>
